<?xml version="1.0" encoding="UTF-8"?>
<svg id="Capa_2" data-name="Capa 2" xmlns="http://www.w3.org/2000/svg" viewBox="0 0 398.91 65.87">
  <defs>
    <style>
      .cls-1 {
        fill: #27eaa6;
      }

      .cls-2 {
        fill: #ebfff6;
      }
    </style>
  </defs>
  <g id="Capa_1-2" data-name="Capa 1-2">
    <g>
      <g>
        <path class="cls-2" d="M354.09,20.45V5.31c0-.54.05-1.08.19-1.6.37-1.41,1.41-2.12,2.98-2.05,1.23.06,2.24.98,2.47,2.27.09.51.14,1.03.14,1.55v37.91c0,.56-.06,1.11-.15,1.66-.22,1.33-1.26,2.22-2.59,2.27-1.48.05-2.5-.69-2.85-2.07-.16-.65-.2-1.32-.18-1.99,0-.14.05-.34-.13-.39-.17-.05-.25.13-.34.24-2.37,2.78-5.49,4.08-9.03,4.54-2.97.38-5.86.05-8.63-1.11-4.14-1.74-6.8-4.88-8.08-9.09-1.38-4.51-1.31-9.07.68-13.4,2.01-4.36,5.3-7.31,10.2-8.22,3.88-.72,7.63-.43,11.18,1.38,1.29.66,2.42,1.53,3.41,2.59.2.21.36.46.73.64h0ZM354.1,31.17c.03-.62-.11-1.65-.37-2.66-.92-3.66-3.25-6.01-6.81-7.21-1.7-.57-3.44-.64-5.2-.41-3.31.43-5.88,2.03-7.47,4.96-1.7,3.14-1.84,6.47-.75,9.83,1.03,3.16,3.17,5.31,6.4,6.26,1.75.51,3.56.57,5.39.34,2.54-.32,4.66-1.42,6.32-3.35,1.81-2.11,2.49-4.61,2.5-7.76h-.01Z"/>
        <path class="cls-2" d="M201.43,42.24c-1.47,1.64-3.11,2.89-5.09,3.68-2.41.96-4.91,1.22-7.48,1-1.56-.13-3.06-.45-4.49-1.08-3.6-1.59-5.58-4.46-6.48-8.17-.53-2.18-.68-4.4-.68-6.63v-11.48c0-.87.07-1.75.61-2.5.66-.93,1.81-1.37,3.02-1.09,1.12.26,1.75,1.01,2,2.1.11.47.13.95.13,1.44,0,4.22,0,8.44,0,12.65,0,1.34.16,2.67.54,3.96.85,2.86,2.72,4.64,5.65,5.29,3.34.74,6.43.23,9.1-2.02,1.67-1.41,2.49-3.3,2.92-5.39.22-1.08.27-2.17.27-3.27,0-3.59,0-7.17-.02-10.76,0-.56.04-1.11.12-1.66.19-1.39,1.32-2.39,2.72-2.43,1.41-.04,2.52.84,2.82,2.22.08.38.12.77.12,1.16,0,8.64.02,17.28-.02,25.92,0,2.67-.65,5.23-1.97,7.59-1.52,2.72-3.76,4.67-6.69,5.73-5.48,1.99-10.89,1.68-16.18-.73-1.39-.63-2.57-1.58-3.53-2.78-.53-.66-.85-1.41-.77-2.26.1-1.07.63-1.87,1.66-2.26s2.02-.31,2.88.45c.64.57,1.28,1.14,2,1.61,1.64,1.08,3.46,1.62,5.42,1.79,1.33.11,2.65.12,3.96-.12,4.52-.8,7.39-4.14,7.47-8.7.02-1.09,0-2.18,0-3.27h-.01Z"/>
        <path class="cls-2" d="M271.04,33.91h-1.51c-3.29-.03-6.58.07-9.87-.05-.54-.02-.62.11-.5.69.92,4.42,4.84,7.51,8.87,7.75,1.75.11,3.46.15,5.15-.34,1.94-.56,3.62-1.57,5.07-2.96.24-.23.5-.44.77-.64,1.06-.78,2.49-.69,3.45.2.91.84,1.13,2.24.4,3.3-1.04,1.52-2.47,2.62-4.04,3.55-2.05,1.22-4.29,1.91-6.65,2.21-3.78.48-7.43,0-10.85-1.71-4.62-2.29-7.22-6.12-8.08-11.11-.59-3.39-.35-6.76,1.03-9.95,2.17-4.99,5.98-7.99,11.36-9.01,4.02-.76,7.92-.43,11.56,1.46,4.65,2.41,7.34,6.26,8.01,11.45.09.68.07,1.38.01,2.06-.15,1.63-1.47,2.93-3.16,3.02-3.68.19-7.36.07-11.04.1l.02-.02ZM269.37,28.76h9.58c.37,0,.78.03.6-.55-.55-1.87-1.44-3.54-2.93-4.85-2.22-1.95-4.84-2.68-7.76-2.59-4.62.15-8.19,2.86-9.54,7.25-.21.7-.19.73.52.73h9.53Z"/>
        <path class="cls-2" d="M398.91,31.69v11.59c0,.54-.03,1.07-.11,1.61-.24,1.53-1.29,2.44-2.85,2.44-1.46,0-2.49-.94-2.71-2.45-.08-.57-.11-1.15-.1-1.72,0-.11,0-.24-.12-.29-.13-.04-.2.07-.27.15-2.49,2.96-5.79,4.29-9.55,4.66-3.76.37-7.31-.29-10.5-2.38-2.89-1.89-4.81-4.57-5.78-7.85-1.34-4.52-1.31-9.07.68-13.4,2-4.36,5.29-7.31,10.19-8.23,3.9-.73,7.66-.43,11.23,1.4,1.4.71,2.59,1.69,3.63,2.85.11.12.22.34.38.29.22-.07.12-.32.12-.49-.02-.58.03-1.16.12-1.72.24-1.39,1.39-2.32,2.76-2.29,1.44.03,2.51.97,2.75,2.39.1.63.13,1.25.13,1.89v11.54h0ZM393.14,31.19c.03-.63-.11-1.66-.36-2.67-.92-3.66-3.24-6.02-6.8-7.21-1.71-.58-3.48-.65-5.26-.41-3.24.43-5.78,1.99-7.37,4.85-1.81,3.26-1.93,6.72-.72,10.19,1.05,3.03,3.18,5.1,6.3,6,1.77.51,3.6.57,5.44.34,2.46-.31,4.52-1.37,6.16-3.21,1.89-2.12,2.6-4.67,2.61-7.87h0Z"/>
        <path class="cls-2" d="M150.11,30.56c.58-.16.91-.55,1.29-.86,5.26-4.26,10.49-8.55,15.83-12.7.37-.29.76-.54,1.16-.77,1.7-.95,3.71.11,3.92,2.04.12,1.14-.26,2.04-1.16,2.74-3.35,2.62-6.7,5.23-10.05,7.85-.73.57-.73.58-.12,1.26,3.49,3.9,6.98,7.8,10.47,11.7.4.45.77.91,1.02,1.46.53,1.19.25,2.58-.72,3.41-.94.81-2.5.89-3.56.2-.62-.41-1.06-.99-1.53-1.54-3.44-4.06-6.89-8.13-10.32-12.2-.27-.32-.47-.33-.79-.09-1.7,1.3-3.42,2.59-5.13,3.88-.28.21-.33.46-.33.77v5.91c0,.41-.02.81-.08,1.22-.28,1.72-1.33,2.58-3.05,2.5-1.45-.07-2.43-1.15-2.53-2.76-.02-.31,0-.63,0-.95V5.28c0-.56,0-1.11.15-1.66.31-1.15,1.21-1.9,2.37-1.95,1.48-.06,2.51.55,2.92,1.76.2.6.25,1.23.25,1.87v25.28-.02Z"/>
        <path class="cls-2" d="M291.15,31.58v-12.09c0-.3-.01-.6.02-.89.11-1.07.48-2.02,1.56-2.45,1.07-.43,2.13-.38,3.06.38.76.61.94,1.49,1.02,2.39.03.31,0,.63.01.95,0,.12-.04.29.12.34.15.04.22-.11.3-.21,2.53-3.11,5.96-4.28,9.82-4.49,2.28-.12,4.51.11,6.65.97,3.79,1.52,5.95,4.39,6.91,8.26.52,2.07.67,4.17.67,6.3v12.32c0,.67-.06,1.34-.23,1.99-.32,1.24-1.32,1.98-2.64,2-1.36.02-2.32-.66-2.69-1.91-.19-.65-.23-1.31-.23-1.99,0-4.59.02-9.18-.02-13.77-.02-2.15-.47-4.22-1.82-5.98-1.2-1.57-2.87-2.41-4.8-2.73-2.29-.38-4.56-.3-6.7.68-2.89,1.32-4.36,3.72-4.99,6.72-.26,1.21-.32,2.43-.33,3.65-.03,3.81-.01,7.62-.01,11.43,0,.46,0,.93-.08,1.39-.28,1.72-1.33,2.58-3.05,2.5-1.45-.07-2.43-1.14-2.53-2.76-.02-.41-.01-.82-.01-1.23v-11.76h0Z"/>
        <path class="cls-2" d="M213.99,22.27v-12.65c0-.62.06-1.22.21-1.82.3-1.21,1.34-1.98,2.7-2.01,1.29-.03,2.31.69,2.66,1.89.14.48.2.98.2,1.49v6.24c0,.73.04.76.76.76h10.6c.53,0,1.05.06,1.56.17,1.34.28,2.17,1.36,2.1,2.69-.08,1.37-.97,2.27-2.38,2.43-.84.09-1.68.11-2.52.11h-9.31c-.5,0-.74.09-.76.66-.03.72-.04,1.45-.05,2.17v10.98c0,.95.12,1.89.35,2.81.6,2.41,2.67,4.06,5.17,4.21,2.4.14,4.37-.59,5.83-2.54.32-.43.66-.85,1.1-1.18.85-.64,2.03-.72,2.94-.18s1.44,1.68,1.22,2.73c-.24,1.19-.93,2.14-1.71,3.03-1.76,2.03-4.08,3.02-6.69,3.38-2.76.38-5.45.12-7.98-1.12-2.83-1.38-4.51-3.7-5.34-6.68-.49-1.75-.66-3.54-.66-5.34,0-4.07,0-8.14,0-12.21h0v-.02Z"/>
        <path class="cls-2" d="M240.89,31.64v-12.15c0-.48,0-.96.11-1.44.3-1.35,1.33-2.19,2.67-2.17,1.46.03,2.49.85,2.76,2.21.09.46.14.92.14,1.38v24.3c0,.9-.06,1.79-.65,2.54-.71.9-1.95,1.25-3.14.89-1.09-.33-1.77-1.26-1.86-2.59-.03-.37-.02-.74-.02-1.11v-11.87h0Z"/>
        <path class="cls-2" d="M247.25,6.7c0,1.99-1.56,3.57-3.53,3.57s-3.55-1.57-3.57-3.6c-.02-1.93,1.6-3.54,3.58-3.54s3.53,1.58,3.53,3.57h0Z"/>
        <path class="cls-2" d="M123.92,47.4c-2.69,0-4.87,0-7.06,0-1.35,0-2.29-.64-2.66-1.73-.57-1.69.62-3.26,2.58-3.4.27-.02.53,0,.8,0h11.83c.76,0,1.48-.1,2.17-.44,1.55-.76,2.43-2.41,2.2-4.12-.22-1.62-1.59-3.04-3.22-3.35-.4-.08-.81-.12-1.22-.12h-11.94c-1.8,0-3.55-.25-5.14-1.14-2.87-1.6-4.5-4.04-4.81-7.3-.45-4.67,3.01-8.94,7.55-9.68.72-.12,1.44-.17,2.17-.17h12.15c.66,0,1.32.07,1.89.45.9.6,1.3,1.63,1.05,2.63-.27,1.11-1.08,1.82-2.25,1.94-.56.06-1.13.1-1.7.1-3.91.01-7.82-.01-11.73.02-1.6.01-2.82.77-3.59,2.18-1.21,2.22-.08,4.89,2.38,5.6.5.14,1,.22,1.52.22h11.62c1.95,0,3.85.22,5.62,1.16,3.31,1.77,5.24,5.46,4.73,9.17-.58,4.24-3.86,7.43-8.12,7.86-2.45.25-4.9.03-6.85.1l.03.02Z"/>
      </g>
      <g>
        <path class="cls-1" d="M19.45,46.13c1.88,0,3.41-1.53,3.41-3.41s-1.53-3.41-3.41-3.41-3.41,1.53-3.41,3.41,1.53,3.41,3.41,3.41Z"/>
        <path class="cls-1" d="M35.77,39.3c-1.88,0-3.41,1.53-3.41,3.41s1.53,3.41,3.41,3.41,3.41-1.53,3.41-3.41-1.53-3.41-3.41-3.41Z"/>
        <circle class="cls-1" cx="52.09" cy="42.71" r="3.41"/>
        <circle class="cls-1" cx="30.58" cy="15.62" r="3.41"/>
        <circle class="cls-1" cx="46.89" cy="15.62" r="3.41"/>
        <path class="cls-1" d="M63.21,12.21c-1.88,0-3.41,1.53-3.41,3.41s1.53,3.41,3.41,3.41,3.41-1.53,3.41-3.41-1.53-3.41-3.41-3.41Z"/>
        <path class="cls-1" d="M82.72,15l-.02-.36c0-.15-.02-.3-.03-.45-.02-.19-.04-.38-.07-.58l-.02-.15c-.47-3.27-1.97-6.28-4.35-8.69-1.15-1.16-2.48-2.15-3.95-2.92-.74-.39-1.52-.72-2.32-.99-1.66-.57-3.37-.85-5.08-.85h-15.4c-1.14,0-2.06.93-2.06,2.07s.93,2.07,2.06,2.07h15.44c5.03,0,9.49,3.16,11.11,7.92l.13.43c.04.14.08.28.13.47l.03.13c.1.46.18.92.23,1.38v.12c.03.19.04.38.05.58v.17c.01.17,0,.34,0,.58v.29c-.02.15-.03.3-.04.44l-.02.19c-.01.13-.03.25-.05.38l-.09.53c-.91,4.64-4.69,8.32-9.41,9.16l-2.03.36,1.54,1.37c.6.53,1.17,1.11,1.7,1.72l.42.48.61-.18c1.4-.4,2.76-1,4.02-1.77.04-.02.07-.04.11-.05l.21-.1c.81-.52,1.57-1.12,2.26-1.76.33-.31.67-.67,1.03-1.08l.18-.21c.07-.08.14-.16.2-.24l.1-.12c.18-.22.33-.43.48-.63,1.32-1.81,2.19-3.81,2.61-5.95.11-.56.19-1.16.25-1.85.03-.34.04-.69.05-1.11,0-.25,0-.51-.01-.78v-.02Z"/>
        <path class="cls-1" d="M31.26,54.21h-12.06c-2.29,0-4.49.85-6.18,2.39l-5.42,4.92c-.31.28-.76.3-1.09.07-.35-.24-.47-.65-.31-1.05l2.76-6.93c.35-.87-.31-1.69-.52-1.92l-.1-.09c-2.74-2.27-4.31-5.73-4.19-9.26.18-5.34,4.23-9.92,9.62-10.89l2.02-.37-1.54-1.37c-.61-.54-1.18-1.12-1.71-1.72l-.42-.48-.61.17c-5.8,1.63-10.09,6.2-11.21,11.93-.99,5.07.44,10.1,3.92,13.8.15.16.19.39.11.6l-1.99,5c-.62,1.55-.43,3.29.5,4.66.46.68,1.09,1.25,1.81,1.63s1.53.58,2.35.58c1.24,0,2.43-.46,3.36-1.3l6.71-6.08c.1-.09.24-.15.38-.15h13.8c1.14,0,2.06-.93,2.06-2.07s-.93-2.06-2.06-2.06h0Z"/>
      </g>
      <path class="cls-2" d="M71.61,42.53c0-.14,0-.27-.02-.41v-.28c-.02-.09-.02-.18-.03-.27-.02-.29-.05-.58-.1-.93l-.02-.15c-.04-.29-.09-.57-.17-.93l-.03-.18c-.03-.13-.06-.26-.1-.39l-.03-.1c-.15-.62-.32-1.16-.5-1.66-.23-.64-.52-1.27-.9-1.94l-.23-.4h-.01c-.11-.2-.23-.39-.35-.58-.13-.2-.26-.38-.4-.57v-.02l-.27-.37c-.05-.07-.1-.13-.16-.2l-.08-.09c-.14-.17-.28-.35-.42-.52-.3-.35-.61-.68-.96-1.03-.04-.05-.09-.1-.14-.15-2.86-2.7-6.59-4.2-10.52-4.25h-29.43c-.11,0-.21,0-.32-.02l-.42-.02c-.11,0-.21,0-.32-.02-2.5-.24-4.82-1.28-6.7-3.01l-.08-.08c-2.34-2.2-3.67-5.29-3.63-8.49.06-6.26,5.3-11.36,11.68-11.36h17.16c1.14,0,2.06-.93,2.06-2.07S45.24-.03,44.1-.03h-17.12C22.76-.03,18.62,1.71,15.63,4.74c-.05.05-.1.11-.22.24-.23.25-.46.5-.68.76-.11.13-.22.27-.33.41-.2.26-.4.52-.58.79l-.21.3c-.26.39-.49.79-.71,1.2l-.05.1c-.21.4-.39.8-.59,1.26l-.05.12c-.36.89-.63,1.82-.82,2.76l-.03.18c-.08.42-.13.83-.18,1.32v.14c-.05.46-.07.92-.07,1.36v.11c0,.14,0,.27.02.41l.03.55c.02.29.05.58.1.93l.02.15c.04.29.1.58.17.94l.03.18c.03.13.06.26.1.39l.03.1c.15.62.32,1.16.5,1.66.23.64.52,1.27.9,1.94l.23.4h.01c.11.2.23.39.35.58.13.2.27.39.41.58v.02l.26.36c.05.07.11.14.16.2l.07.09c.14.17.28.35.42.52.3.35.61.68.96,1.02.05.05.09.1.14.15,2.91,2.74,6.71,4.25,10.7,4.25h29.46c.29.01.57.02.85.05,2.5.24,4.82,1.28,6.7,3.02l.08.07c2.34,2.2,3.67,5.29,3.63,8.49-.06,6.26-5.3,11.36-11.68,11.36h-17.16c-1.14,0-2.06.93-2.06,2.06s.93,2.07,2.07,2.07h17.12c4.22,0,8.36-1.74,11.35-4.77.06-.06.11-.11.21-.23.24-.25.46-.5.68-.76h0c.11-.13.22-.27.32-.4.21-.26.4-.53.59-.8l.21-.3c.26-.39.49-.79.71-1.2l.05-.1c.21-.4.4-.8.57-1.21l.07-.18c.36-.89.63-1.82.82-2.76l.03-.18c.08-.42.13-.84.18-1.32v-.14c.05-.46.07-.92.07-1.36v-.11l.02.02Z"/>
    </g>
  </g>
</svg>